<svg width="64" height="64" viewBox="0 0 64 64" fill="none" xmlns="http://www.w3.org/2000/svg">
<path d="M32 0C14.3267 0 0 14.3267 0 32C0 49.6733 14.3267 64 32 64C49.6733 64 64 49.6733 64 32C64 14.3267 49.6733 0 32 0ZM24.1667 45.2633H17.6867V24.41H24.1667V45.2633ZM20.8867 21.85C18.84 21.85 17.5167 20.4 17.5167 18.6067C17.5167 16.7767 18.88 15.37 20.97 15.37C23.06 15.37 24.34 16.7767 24.38 18.6067C24.38 20.4 23.06 21.85 20.8867 21.85ZM47.8333 45.2633H41.3533V33.7067C41.3533 31.0167 40.4133 29.19 38.07 29.19C36.28 29.19 35.2167 30.4267 34.7467 31.6167C34.5733 32.04 34.53 32.64 34.53 33.2367V45.26H28.0467V31.06C28.0467 28.4567 27.9633 26.28 27.8767 24.4067H33.5067L33.8033 27.3033H33.9333C34.7867 25.9433 36.8767 23.9367 40.3733 23.9367C44.6367 23.9367 47.8333 26.7933 47.8333 32.9333V45.2633Z" fill="black"/>
</svg>
