<svg width="64" height="64" viewBox="0 0 64 64" fill="none" xmlns="http://www.w3.org/2000/svg">
<path d="M32 0C14.3286 0 0 14.3286 0 32C0 49.6714 14.3286 64 32 64C49.6714 64 64 49.6714 64 32C64 14.3286 49.6714 0 32 0ZM47.3786 24.1214C47.4 24.4571 47.4 24.8071 47.4 25.15C47.4 35.6357 39.4143 47.7143 24.8214 47.7143C20.3214 47.7143 16.15 46.4071 12.6357 44.1571C13.2786 44.2286 13.8929 44.2571 14.55 44.2571C18.2643 44.2571 21.6786 43 24.4 40.8714C20.9143 40.8 17.9857 38.5143 16.9857 35.3714C18.2071 35.55 19.3071 35.55 20.5643 35.2286C18.7695 34.8639 17.1562 33.8892 15.9987 32.4699C14.8411 31.0506 14.2106 29.2743 14.2143 27.4429V27.3429C15.2643 27.9357 16.5 28.3 17.7929 28.35C16.706 27.6257 15.8147 26.6444 15.1979 25.4931C14.5812 24.3418 14.258 23.0561 14.2571 21.75C14.2571 20.2714 14.6429 18.9214 15.3357 17.75C17.3279 20.2024 19.8138 22.2082 22.6319 23.6369C25.45 25.0656 28.5372 25.8854 31.6929 26.0429C30.5714 20.65 34.6 16.2857 39.4429 16.2857C41.7286 16.2857 43.7857 17.2429 45.2357 18.7857C47.0286 18.45 48.7429 17.7786 50.2714 16.8786C49.6786 18.7143 48.4357 20.2643 46.7857 21.2429C48.3857 21.0714 49.9286 20.6286 51.3571 20.0071C50.2786 21.5929 48.9286 23 47.3786 24.1214Z" fill="black"/>
</svg>
